PathFileType	3	(X/Y/Z)	E:\ViconData\BIOM9541 2025\Week 7\Wed1100\Hanif 90 squat 2-5 Squat 01.trc
DataRate	CameraRate	NumFrames	NumMarkers	Units	OrigDataRate	OrigDataStartFrame	OrigNumFrames
200.0	200.0	10	19	mm	200.0	917	1467	
Frame#	Time	C7			CLAV			RBAK			LASI			RASI			LPSI			RPSI			LTHI			LKNE			LTIB			LANK			LHEE			LTOE			RTHI			RKNE			RTIB			RANK			RHEE			RTOE			
		X1	Y1	Z1	X2	Y2	Z2	X3	Y3	Z3	X4	Y4	Z4	X5	Y5	Z5	X6	Y6	Z6	X7	Y7	Z7	X8	Y8	Z8	X9	Y9	Z9	X10	Y10	Z10	X11	Y11	Z11	X12	Y12	Z12	X13	Y13	Z13	X14	Y14	Z14	X15	Y15	Z15	X16	Y16	Z16	X17	Y17	Z17	X18	Y18	Z18	X19	Y19	Z19	
917	4.58	351.51901	1315.4452	-1214.1581	201.72415	1255.9264	-1207.9293	371.85315	1227.8622	-1357.5459	204.36574	879.28448	-1084.5144	212.68465	890.2887	-1345.2599	379.2883	938.61719	-1164.3651	383.28357	936.52289	-1238.6876	248.8201	559.97491	-994.1123	257.02063	419.91663	-992.53943	290.46204	218.21597	-957.86853	307.44177	63.437252	-964.9231	326.74957	47.609577	-1024.2017	162.90152	38.302509	-935.59552	272.78549	733.9397	-1412.3811	289.25082	421.43332	-1423.4636	301.87671	335.10922	-1447.5527	307.1001	73.115761	-1445.5408	326.7211	47.068687	-1381.8409	164.92953	40.886482	-1477.3528
918	4.585	351.64282	1315.3987	-1214.1084	201.86409	1255.8993	-1207.901	371.98422	1227.8295	-1357.5084	204.33904	879.28619	-1084.5107	212.71014	890.32361	-1345.2548	379.31473	938.5968	-1164.2996	383.26453	936.44586	-1238.6421	248.81929	559.90509	-994.13617	257.00555	419.87778	-992.56128	290.44315	218.19783	-957.87451	307.0972	63.199738	-965.06836	327.11612	47.851879	-1024.4501	162.88165	38.298267	-935.57581	272.78052	733.95123	-1412.3696	289.20044	421.45206	-1423.4763	301.81833	335.13266	-1447.5608	307.077	73.129128	-1445.5486	326.70959	47.115242	-1381.7931	164.93433	40.925449	-1477.3534
919	4.59	351.74844	1315.3793	-1214.0553	201.78795	1256.2084	-1207.8474	372.1575	1227.8724	-1357.432	204.34096	879.2594	-1084.5111	212.54074	890.33466	-1345.5299	379.35144	938.53137	-1164.3358	383.31738	936.47131	-1238.6387	248.81841	559.90887	-994.17389	257.02081	419.88089	-992.56879	290.40643	218.20155	-957.85126	307.44345	63.387348	-964.97217	327.06943	47.783733	-1024.4811	162.89519	38.287315	-935.61072	272.80493	733.93298	-1412.3763	289.16995	421.37503	-1423.4927	301.77942	335.08255	-1447.5944	307.0881	73.059525	-1445.559	326.74323	47.092838	-1381.8523	164.94144	40.874771	-1477.3468
920	4.595	351.89273	1315.3456	-1214.0195	202.11952	1255.8983	-1207.8939	372.25757	1227.8431	-1357.3558	204.35526	879.30267	-1084.5186	212.56795	890.33777	-1345.5283	379.38358	938.47369	-1164.3834	383.34253	936.44476	-1238.5784	248.81194	559.94629	-994.17059	256.97806	419.85245	-992.55548	290.39603	218.18494	-957.86688	307.54721	63.413956	-964.94128	327.0972	47.737984	-1024.4811	162.91562	38.285351	-935.62482	272.80728	733.88043	-1412.361	289.12671	421.30249	-1423.495	301.74368	335.02673	-1447.5986	307.15698	72.936775	-1445.5887	326.78101	47.028996	-1381.9308	164.96127	40.810047	-1477.3286
921	4.6	351.98605	1315.3278	-1213.9836	201.98853	1256.2288	-1207.776	372.34793	1227.8153	-1357.2924	204.35455	879.31464	-1084.5122	212.6087	890.33472	-1345.528	379.40524	938.45026	-1164.3431	383.35822	936.39929	-1238.5291	248.82365	559.92279	-994.1889	256.95328	419.84454	-992.57385	290.40457	218.17209	-957.87408	307.55637	63.405701	-964.95898	327.07776	47.704029	-1024.4972	162.92256	38.300098	-935.66669	272.79266	733.88629	-1412.3508	289.05444	421.29276	-1423.5168	301.68365	335.04074	-1447.6293	307.12888	72.937149	-1445.5872	326.76263	47.068947	-1381.9155	164.9567	40.801247	-1477.3134
922	4.605	352.06052	1315.3035	-1213.9347	202.09142	1256.2267	-1207.702	372.3598	1227.7828	-1357.1963	204.3829	879.24969	-1084.5231	212.65891	890.33307	-1345.5179	379.41953	938.45886	-1164.132	383.35074	936.26337	-1238.4686	248.78288	559.88654	-994.14746	256.91541	419.79523	-992.55774	290.38504	218.13495	-957.8667	307.1333	63.136658	-965.1084	327.15491	47.759064	-1024.4801	162.91006	38.341999	-935.68762	272.79684	733.94537	-1412.3459	288.9476	421.34802	-1423.5409	301.61441	335.08823	-1447.6497	307.06277	73.093369	-1445.5764	326.75684	47.087395	-1381.8116	164.94704	40.849545	-1477.3096
923	4.61	352.15283	1315.3297	-1213.8635	202.18723	1256.2148	-1207.6293	372.44806	1227.6849	-1357.2072	204.42961	879.2312	-1084.5203	212.72119	890.3421	-1345.5103	379.46967	938.495	-1164.01	383.36682	936.14221	-1238.4531	248.73315	559.83966	-994.12036	256.85876	419.79489	-992.53357	290.3223	218.12067	-957.82489	307.12943	63.112617	-965.10132	327.16797	47.836044	-1024.4686	162.89285	38.36697	-935.69623	272.8049	734	-1412.3411	288.85388	421.43451	-1423.5852	301.57074	335.14111	-1447.6793	307.08472	73.153061	-1445.5603	326.75165	47.11525	-1381.741	164.95618	40.943104	-1477.3242
924	4.615	352.23581	1315.3241	-1213.8484	202.28484	1256.2229	-1207.5768	372.52643	1227.7028	-1357.1758	204.46582	879.26758	-1084.5164	212.80098	890.33765	-1345.5051	379.53064	938.48206	-1163.9679	383.47665	936.12195	-1238.4751	248.68971	559.83105	-994.08221	256.75232	419.81143	-992.4826	290.29285	218.10834	-957.83099	307.11905	63.144684	-965.07086	326.97	47.691628	-1024.2635	162.92082	38.370132	-935.69647	272.84091	734.00977	-1412.3231	288.76685	421.44479	-1423.6381	301.52286	335.13687	-1447.7109	307.10413	73.142151	-1445.5607	326.75497	47.129791	-1381.7675	164.97896	40.937157	-1477.2782
925	4.62	352.32272	1315.3661	-1213.8042	202.34344	1256.2576	-1207.5516	372.6601	1227.8407	-1357.1364	204.52341	879.32416	-1084.4933	212.87021	890.35181	-1345.4858	379.66364	938.42828	-1164.1909	383.63831	936.29724	-1238.5273	248.62395	559.86908	-994.02777	256.66205	419.85785	-992.42944	290.22507	218.18085	-957.79529	307.45697	63.394085	-964.93152	327.13141	47.790646	-1024.4862	162.94264	38.397152	-935.76727	272.85526	733.98291	-1412.3	288.65125	421.36722	-1423.7129	301.4447	335.06204	-1447.7539	307.11816	73.087692	-1445.562	326.80173	47.117886	-1381.8688	165.01035	40.890911	-1477.2593
926	4.625	352.39014	1315.3148	-1213.7495	202.40009	1256.2533	-1207.493	372.75385	1227.886	-1357.0804	204.6147	879.36938	-1084.4669	212.95329	890.34283	-1345.4618	379.79211	938.33301	-1164.3132	383.76068	936.36139	-1238.5118	248.52966	559.92621	-993.95093	256.51743	419.90625	-992.34283	290.13074	218.21526	-957.73987	307.58914	63.433357	-964.97186	327.15054	47.705173	-1024.4839	162.93117	38.403427	-935.75031	272.90643	733.94	-1412.2844	288.52112	421.29428	-1423.7971	301.31564	334.99948	-1447.8037	307.12271	73.050316	-1445.5745	326.84186	47.110561	-1381.9696	165.03656	40.82019	-1477.2234
